<?xml version="1.0" standalone="no"?>
<!DOCTYPE svg PUBLIC "-//W3C//DTD SVG 20010904//EN"
 "http://www.w3.org/TR/2001/REC-SVG-20010904/DTD/svg10.dtd">
<svg version="1.0" xmlns="http://www.w3.org/2000/svg"
 width="1597.000000pt" height="1200.000000pt" viewBox="0 0 1597.000000 1200.000000"
 preserveAspectRatio="xMidYMid meet">
<metadata>
Created by potrace 1.16, written by Peter Selinger 2001-2019
</metadata>
<g transform="translate(0.000000,1200.000000) scale(0.100000,-0.100000)"
fill="#000000" stroke="none">
<path d="M9637 11330 c-16 -5 -34 -13 -41 -19 -7 -6 -15 -9 -18 -6 -5 5 -20
-9 -63 -58 -30 -33 -57 -84 -61 -112 -1 -11 -10 -46 -18 -78 -9 -32 -16 -67
-16 -78 0 -11 -4 -17 -10 -14 -5 3 -10 14 -10 23 0 29 -45 115 -79 151 -29 31
-35 33 -82 29 -37 -4 -57 -12 -79 -33 -17 -16 -30 -25 -30 -20 0 16 -46 -46
-72 -98 -25 -49 -28 -62 -28 -114 0 -13 -5 -23 -12 -23 -8 0 -9 -18 -3 -62 13
-110 12 -159 -6 -169 -14 -7 -17 2 -23 70 -8 102 -26 159 -66 215 -40 56 -100
80 -167 67 -46 -9 -93 -35 -93 -52 0 -6 -4 -7 -10 -4 -5 3 -10 -3 -10 -14 0
-11 -4 -22 -9 -25 -10 -7 -50 -151 -50 -181 0 -23 -8 -98 -11 -105 -1 -3 -2
-8 -1 -12 0 -4 -4 -31 -9 -60 -10 -55 -15 -95 -25 -208 -3 -36 -10 -100 -16
-142 -6 -42 -8 -82 -4 -89 6 -8 4 -10 -5 -4 -10 6 -12 4 -7 -8 3 -9 2 -30 -3
-47 -5 -17 -12 -56 -15 -86 -3 -31 -10 -78 -15 -106 -6 -27 -8 -53 -6 -57 2
-3 -2 -39 -9 -80 -7 -40 -12 -84 -10 -97 1 -13 -1 -24 -5 -24 -4 0 -10 -21
-14 -46 -6 -43 -32 -105 -48 -112 -5 -2 -8 -8 -8 -12 0 -12 -60 -74 -90 -92
-49 -30 -196 -81 -250 -87 -131 -15 -291 1 -367 35 -17 8 -35 14 -40 13 -4 -1
-21 3 -36 9 -16 7 -33 12 -38 12 -5 0 -9 4 -9 9 0 5 -15 13 -32 17 -18 3 -44
15 -57 25 -13 11 -28 19 -33 19 -6 0 -33 18 -61 40 -28 23 -57 38 -64 35 -8
-2 -11 0 -8 5 5 9 -84 73 -107 76 -4 1 -9 3 -10 4 -6 5 -103 11 -159 9 -24 -1
-86 -69 -93 -104 -4 -16 -9 -50 -12 -75 -2 -25 -6 -53 -8 -62 -2 -10 0 -18 5
-18 5 0 5 -10 -1 -24 -5 -13 -7 -26 -4 -29 2 -2 7 -31 10 -63 5 -55 10 -92 14
-104 1 -3 2 -8 1 -12 0 -4 3 -18 8 -32 6 -13 13 -43 16 -67 4 -24 10 -50 15
-59 31 -59 120 -496 120 -589 0 -31 5 -72 10 -91 6 -19 15 -100 21 -180 13
-183 41 -347 81 -475 17 -55 37 -122 45 -150 20 -64 63 -141 119 -210 85 -105
310 -227 498 -270 84 -20 288 -35 361 -28 l55 6 0 107 0 107 38 26 c80 55 153
62 233 22 60 -31 89 -74 89 -132 0 -49 10 -53 75 -25 103 43 241 131 444 280
132 97 384 316 561 487 342 332 729 664 960 827 173 121 532 319 755 415 96
42 156 61 337 107 256 66 292 85 371 189 87 116 92 129 92 237 0 84 -3 102
-29 158 -16 34 -46 78 -67 96 -20 19 -35 37 -31 40 3 3 -2 6 -10 6 -8 0 -26
10 -39 23 -32 30 -102 63 -163 77 -27 6 -57 15 -67 20 -10 6 -44 13 -76 16
-32 3 -82 9 -111 13 -60 9 -331 6 -363 -4 -11 -4 -42 -9 -67 -11 -66 -5 -172
-30 -185 -43 -6 -6 -17 -11 -25 -11 -27 0 -112 -42 -105 -53 3 -6 1 -7 -5 -3
-6 4 -24 0 -40 -8 -16 -8 -31 -13 -34 -11 -2 3 -20 -11 -38 -30 -19 -19 -40
-35 -47 -35 -8 0 -16 -7 -19 -15 -4 -8 -10 -13 -14 -10 -4 3 -11 -2 -14 -11
-4 -9 -9 -14 -13 -11 -3 4 -15 -3 -25 -16 -11 -12 -23 -22 -27 -22 -8 0 -93
-65 -102 -78 -3 -5 -9 -8 -13 -8 -23 3 -36 -2 -59 -21 -15 -13 -46 -33 -69
-45 -124 -62 -191 -93 -213 -97 -14 -3 -30 -8 -37 -13 -7 -4 -17 -8 -23 -9 -5
-1 -36 -12 -68 -23 -42 -15 -59 -17 -61 -8 -5 14 -24 681 -36 1242 -5 215 -13
412 -19 438 -22 93 -85 193 -142 222 -30 16 -88 18 -132 5z"/>
<path d="M6940 5460 c0 -40 -42 -587 -50 -655 -6 -44 -10 -140 -10 -215 0 -74
-4 -252 -9 -395 -6 -143 -13 -366 -16 -495 -3 -129 -12 -417 -20 -640 -8 -223
-17 -531 -20 -685 -3 -154 -8 -300 -10 -325 -3 -25 -9 -218 -15 -430 -9 -329
-27 -923 -44 -1472 l-5 -148 764 0 765 0 0 295 0 294 -62 3 -63 3 -3 471 -2
470 34 16 c19 9 50 20 70 23 20 4 38 11 41 15 2 4 5 367 7 806 2 1008 16 2602
23 2631 12 51 136 75 204 39 l34 -18 -6 -1052 c-4 -578 -9 -1357 -12 -1731 -3
-374 -3 -675 -1 -670 3 6 7 186 10 400 3 215 10 421 15 458 22 141 65 178 211
185 97 5 809 -36 1178 -68 171 -14 168 -6 176 -410 4 -173 9 -398 11 -500 9
-338 10 -815 2 -836 -5 -15 -15 -20 -37 -19 -19 1 -29 -3 -27 -9 2 -6 16 -10
31 -8 l27 3 -23 -41 c-20 -35 -27 -40 -50 -36 -16 3 -28 0 -31 -7 -2 -7 -11 2
-19 18 -21 39 -88 98 -88 77 0 -14 36 -52 49 -52 6 0 11 -4 11 -10 0 -5 -4
-10 -10 -10 -5 0 -10 -10 -10 -22 0 -18 -2 -20 -9 -8 -6 8 -7 18 -5 22 3 4 -1
8 -9 8 -9 0 -17 15 -21 40 -3 22 -11 40 -17 40 -5 0 -7 -4 -4 -10 3 -5 1 -10
-4 -10 -6 0 -11 5 -11 12 0 6 -3 8 -7 5 -3 -4 -12 -2 -20 4 -9 8 -13 8 -13 1
0 -6 15 -22 33 -36 19 -16 28 -29 22 -34 -5 -4 -10 -13 -10 -21 0 -8 -6 -16
-12 -19 -8 -2 -13 5 -13 19 0 12 -3 19 -7 15 -4 -4 -7 -19 -8 -34 0 -22 -5
-28 -27 -30 -19 -2 -28 2 -33 17 -3 12 -13 21 -20 21 -8 0 -18 7 -23 16 -6 11
-12 13 -16 6 -4 -6 2 -17 14 -24 32 -20 26 -48 -10 -45 -16 1 -30 6 -30 12 0
5 -5 4 -12 -3 -18 -18 -41 -15 -34 5 7 18 -29 59 -39 43 -3 -6 -1 -10 5 -10 7
0 10 -7 6 -15 -3 -8 -1 -15 4 -15 6 0 10 -4 10 -9 0 -6 -26 -9 -58 -9 -32 1
-64 -2 -70 -6 -7 -4 -18 -4 -24 1 -19 11 -38 12 -38 2 0 -5 -7 -9 -16 -9 -8 0
-12 5 -8 11 5 8 1 8 -14 0 -31 -17 -99 -13 -130 6 -23 15 -25 15 -14 2 11 -15
4 -16 -63 -17 -45 -1 -73 3 -70 9 4 5 1 9 -4 9 -6 0 -11 -5 -11 -10 0 -6 -23
-9 -55 -8 -30 2 -55 6 -55 9 0 3 -7 6 -15 6 -8 0 -15 -4 -15 -9 0 -5 -10 -2
-22 6 -15 11 -26 12 -40 5 -15 -8 -25 -3 -55 30 -20 23 -43 41 -52 41 -13 0
-13 -2 -3 -9 8 -5 12 -21 10 -37 -3 -27 -7 -29 -47 -32 -62 -5 -102 14 -97 44
5 25 -8 41 -19 24 -6 -9 -8 -32 -14 -127 -1 -9 -18 -13 -51 -13 l-50 0 0 -295
0 -295 191 0 c171 0 190 2 185 16 -3 9 -3 21 0 26 12 19 15 79 17 326 l2 242
30 6 c16 3 68 4 113 2 l84 -3 -1 -307 -2 -308 161 0 160 0 0 313 0 314 278 7
c296 7 370 14 469 47 70 23 114 64 134 126 29 86 17 1640 -13 1760 -14 58 -73
122 -148 162 l-62 33 -316 10 c-175 6 -320 13 -324 17 -4 3 -8 285 -8 625 l-2
620 59 -3 c32 -1 139 -8 238 -16 165 -13 519 -30 590 -28 16 0 31 5 33 12 5
15 1018 963 1045 977 20 11 20 12 1 17 -10 3 -53 9 -94 12 -41 3 -133 13 -205
20 -348 38 -885 96 -1355 145 -107 11 -258 27 -335 35 -129 14 -264 28 -670
71 -82 8 -229 24 -325 34 -96 10 -245 26 -330 35 -85 9 -234 25 -330 35 -96
10 -242 26 -325 35 -82 9 -211 22 -285 31 -248 27 -260 28 -260 14z m2221
-2649 c-13 -8 -116 0 -105 8 12 8 17 30 15 61 -1 14 -3 42 -4 63 -1 20 -4 37
-7 37 -3 0 -11 9 -18 20 -9 16 -10 26 -1 41 8 17 8 20 -1 14 -8 -5 -11 -3 -8
6 3 8 1 25 -5 39 -5 14 -11 43 -12 65 -1 22 -6 48 -10 57 -4 11 -1 24 9 33 20
21 20 26 0 18 -14 -5 -16 -2 -10 21 5 21 4 26 -6 21 -7 -4 -6 -1 3 7 15 13 30
46 34 78 1 8 4 23 8 33 18 45 20 53 18 65 -1 6 5 12 14 12 14 0 20 17 16 48
-1 7 5 15 14 18 8 3 15 14 15 23 0 9 10 21 23 26 l22 10 3 -409 c1 -240 -2
-412 -7 -415z"/>
<path d="M3360 2096 c0 -7 9 -16 20 -19 11 -3 20 -13 20 -22 0 -11 -5 -15 -15
-12 -24 10 -27 -11 -3 -27 12 -9 18 -16 12 -16 -5 0 -15 5 -21 11 -9 9 -10 6
-6 -10 3 -12 11 -20 18 -17 8 3 15 -5 18 -19 2 -14 0 -22 -4 -19 -12 7 -11 -3
0 -25 9 -15 6 -17 -19 -16 -15 1 -41 -4 -57 -12 -19 -9 -21 -11 -5 -7 14 3 24
0 28 -10 3 -8 11 -13 18 -10 7 3 29 -11 50 -31 28 -26 34 -36 23 -41 -21 -8 1
-64 25 -64 10 0 18 -7 18 -15 0 -9 -6 -12 -15 -9 -8 4 -15 1 -15 -6 0 -10 -3
-10 -15 0 -12 10 -15 10 -15 0 0 -7 -7 -10 -15 -6 -8 3 -15 0 -15 -7 0 -7 -5
-4 -11 6 -5 9 -7 23 -4 30 4 6 0 4 -8 -5 -8 -10 -19 -18 -25 -18 -23 0 3 -37
44 -62 52 -32 87 -37 82 -11 -2 9 -6 15 -9 12 -9 -6 -39 22 -39 37 0 7 10 12
21 11 22 -2 48 -33 54 -64 1 -10 8 -17 15 -15 8 2 11 -4 7 -19 -8 -29 2 -49
23 -49 13 0 17 -6 13 -19 -3 -11 2 -21 11 -24 9 -4 16 -13 16 -22 0 -8 7 -15
16 -15 9 0 18 -10 22 -22 5 -21 6 -21 12 -2 4 10 2 27 -4 36 -8 13 -6 22 8 36
11 13 14 22 6 27 -5 3 -8 10 -5 15 3 5 0 12 -5 15 -6 4 -10 20 -8 36 2 19 -4
33 -17 43 -20 15 -20 15 0 16 20 1 20 1 1 15 -11 8 -16 15 -10 15 5 0 1 5 -8
11 -10 5 -18 17 -18 24 0 8 -8 15 -17 16 -10 0 -13 3 -6 5 7 3 9 12 6 20 -9
25 12 15 35 -16 13 -16 28 -30 34 -30 7 0 6 5 -2 15 -9 10 -9 15 -1 15 6 0 11
5 11 10 0 6 -9 10 -20 10 -11 0 -20 5 -20 10 0 6 6 10 13 10 8 0 7 4 -3 10
-12 8 -11 10 5 10 18 0 21 6 20 50 0 45 -2 49 -21 46 -14 -3 -31 6 -49 24 -16
16 -33 27 -38 23 -6 -3 -7 -1 -3 5 3 6 2 13 -4 17 -5 3 -10 13 -10 21 0 8 5
12 10 9 6 -3 10 -1 10 4 0 6 -7 11 -15 11 -8 0 -15 4 -15 9 0 5 -9 7 -19 4
-14 -3 -21 2 -26 19 -4 12 -16 31 -26 41 -22 20 -59 23 -59 3z"/>
<path d="M12325 1310 c-16 -18 -17 -24 -7 -41 7 -11 8 -19 2 -19 -5 0 -7 -7
-4 -15 4 -8 10 -15 15 -15 4 0 6 7 3 15 -4 9 0 15 8 15 21 0 19 -38 -2 -45
-12 -4 -17 -12 -13 -21 4 -12 -1 -14 -27 -9 -42 7 -50 13 -44 29 3 7 -2 18
-10 25 -12 10 -14 9 -9 -8 3 -13 1 -21 -7 -21 -9 0 -9 -4 1 -17 11 -13 11 -17
1 -20 -6 -3 -9 -10 -5 -16 3 -7 3 -9 -2 -5 -11 10 -47 -11 -40 -23 11 -16 -7
-10 -21 9 -9 12 -13 13 -14 3 0 -7 -6 -11 -15 -7 -8 3 -15 1 -15 -5 0 -20 21
-49 35 -49 8 0 15 -7 15 -15 0 -20 -39 -13 -56 10 -8 10 -23 20 -34 22 -16 2
-20 -3 -20 -23 0 -23 -1 -24 -16 -10 -22 23 -40 20 -41 -6 0 -13 1 -17 4 -10
7 18 20 15 26 -8 3 -14 0 -20 -10 -20 -12 0 -9 -6 9 -23 22 -20 23 -26 12 -41
-7 -10 -17 -15 -22 -12 -13 8 -23 -19 -16 -39 5 -11 2 -13 -10 -9 -9 3 -16 17
-16 29 0 13 -4 27 -10 30 -6 4 -10 -8 -10 -29 0 -43 -15 -48 -23 -7 -3 16 -14
31 -23 35 -16 6 -16 4 2 -15 16 -19 17 -22 2 -16 -10 3 -20 2 -23 -3 -4 -6 -2
-10 3 -10 5 0 7 -13 4 -30 -3 -23 0 -30 12 -30 9 0 16 -4 16 -10 0 -5 -15 -10
-32 -9 -18 0 -28 2 -23 5 16 6 6 94 -11 94 -8 0 -14 -10 -14 -23 0 -20 -4 -23
-30 -19 -25 4 -30 1 -30 -17 0 -15 5 -19 18 -15 14 5 14 4 2 -4 -12 -9 -12
-14 0 -39 23 -45 23 -49 1 -25 l-21 24 5 -189 c3 -103 5 -284 5 -400 l0 -213
1233 1 c1052 1 1223 3 1167 14 -61 13 -325 60 -590 106 -63 11 -144 26 -180
34 -36 8 -87 17 -115 21 -27 4 -54 9 -60 10 -5 2 -41 8 -80 14 -38 7 -80 16
-92 22 -11 6 -25 8 -30 5 -4 -3 -26 3 -47 14 -45 22 -49 23 -42 10 4 -5 -17
-1 -45 10 -29 10 -56 16 -60 13 -5 -3 -9 0 -9 5 0 6 -18 14 -40 17 -22 4 -40
10 -40 15 0 4 -17 6 -37 4 -24 -2 -32 0 -22 6 16 10 17 10 -33 13 -21 1 -38
-2 -38 -6 0 -4 -4 -8 -10 -8 -5 0 -7 7 -4 15 5 11 -1 15 -19 15 -14 0 -29 5
-32 10 -4 6 -14 10 -23 9 -10 -1 -20 0 -24 1 -5 1 -11 3 -15 5 -5 1 -16 5 -25
9 -10 5 -29 9 -42 10 -13 0 -22 4 -19 8 2 5 -4 8 -15 8 -10 0 -44 9 -76 20
-31 10 -64 16 -73 13 -10 -4 -14 -2 -10 4 8 13 -11 12 -32 -1 -10 -6 -12 -5
-7 2 4 8 0 12 -11 12 -11 0 -28 7 -39 15 -10 8 -27 15 -37 15 -10 0 -15 5 -12
10 4 6 3 10 -2 9 -23 -4 -53 2 -49 10 4 5 -4 7 -16 5 -13 -2 -17 -1 -10 2 23
11 -39 35 -96 38 -52 3 -71 10 -59 23 4 3 129 7 279 8 l273 1 0 171 c0 94 3
175 7 179 4 4 2 14 -5 22 -9 12 -9 16 1 19 6 3 9 9 6 14 -3 6 0 16 6 24 15 18
6 45 -16 45 -8 0 -24 10 -35 23 -10 12 -18 16 -19 10 0 -19 -20 -16 -20 3 0 8
-4 12 -10 9 -5 -3 -10 1 -10 9 0 23 11 20 50 -13 28 -22 40 -27 58 -20 17 6
23 15 21 31 -2 13 0 29 4 35 9 15 -51 93 -70 93 -7 0 -13 4 -13 10 0 5 6 7 14
4 17 -7 31 12 16 21 -8 5 -7 11 1 21 15 19 2 18 -18 -1 -8 -8 -19 -13 -24 -10
-5 4 -9 1 -9 -4 0 -14 -10 -14 -30 -1 -13 9 -13 11 0 19 8 6 12 12 9 16 -3 3
-14 -4 -24 -15z"/>
<path d="M3854 781 c3 -22 2 -41 -2 -41 -4 0 -9 -26 -10 -57 -1 -31 -4 -65 -8
-75 -5 -17 -75 -18 -1920 -18 l-1914 0 0 -295 0 -295 2228 1 c1350 0 2215 4
2197 10 -16 5 -50 12 -75 15 -25 3 -49 10 -55 14 -5 5 -23 11 -40 14 -82 15
-123 26 -156 40 -20 8 -56 16 -80 17 -24 1 -48 5 -54 9 -5 3 -35 12 -65 19
-84 18 -132 32 -168 48 -19 8 -42 13 -53 10 -10 -3 -19 -2 -19 3 0 4 -17 10
-37 13 -21 4 -72 16 -113 27 -41 12 -86 23 -100 25 -14 2 -38 8 -53 14 -15 6
-31 10 -35 10 -16 -2 -51 14 -47 21 3 4 -1 7 -8 7 -31 -2 -116 16 -111 24 3 5
-1 6 -9 3 -18 -6 -70 13 -63 24 3 5 0 9 -7 9 -7 0 -38 8 -71 18 -49 14 -60 15
-67 4 -7 -11 -9 -11 -9 -1 0 7 -4 11 -9 8 -5 -4 -22 1 -38 9 -15 8 -45 17 -65
20 -21 3 -38 11 -38 17 0 5 -7 8 -15 4 -8 -3 -15 -2 -15 2 0 5 -16 6 -35 4
-27 -3 -39 1 -58 22 -17 18 -34 26 -59 26 -20 0 -46 9 -61 20 -14 11 -30 19
-35 18 -6 -2 -11 2 -11 7 -1 6 15 13 36 17 21 5 380 6 798 4 418 -2 1165 -1
1660 3 l900 7 -896 2 -896 2 -32 35 c-17 19 -35 35 -40 35 -5 0 -8 8 -6 18 3
23 -13 53 -28 51 -30 -4 -47 2 -47 16 0 8 -12 21 -27 29 -23 12 -24 15 -8 16
26 0 8 17 -29 26 -28 7 -28 7 -22 -35z"/>
</g>
</svg>
